<svg width="390" height="185" viewBox="0 0 390 185" fill="none" xmlns="http://www.w3.org/2000/svg">
<path d="M103.328 42.9414C103.328 53.1628 100.236 61.3659 94.0508 67.5508C87.8659 73.7357 79.6953 76.8281 69.5391 76.8281C65.3073 76.8281 61.3685 76.3398 57.7227 75.3633C54.1419 74.3216 50.8542 72.7266 47.8594 70.5781C44.5391 68.2344 42.0326 65.4349 40.3398 62.1797C38.7122 58.9245 37.8984 55.2786 37.8984 51.2422C37.8984 47.8568 38.5169 44.862 39.7539 42.2578C40.9909 39.5885 42.8789 37.3424 45.418 35.5195C47.6966 33.8919 50.2357 32.6549 53.0352 31.8086C55.8997 30.9622 59.0898 30.5391 62.6055 30.5391C64.7539 30.5391 66.8047 30.7995 68.7578 31.3203C70.7109 31.8411 72.4362 32.6549 73.9336 33.7617C75.6914 35.0638 76.9935 36.5612 77.8398 38.2539C78.7513 39.8815 79.207 41.7695 79.207 43.918C79.207 47.043 78.0026 49.6471 75.5938 51.7305C73.25 53.8138 70.4505 54.8555 67.1953 54.8555C65.112 54.8555 63.3542 54.4974 61.9219 53.7812C60.4896 53.0651 59.3828 51.9258 58.6016 50.3633C59.1224 50.4935 59.6758 50.5911 60.2617 50.6562C60.8477 50.7214 61.3685 50.7539 61.8242 50.7539C64.1029 50.7539 65.7956 50.3633 66.9023 49.582C68.0091 48.7357 68.5625 47.4336 68.5625 45.6758C68.5625 43.9831 67.9766 42.7135 66.8047 41.8672C65.6328 40.9557 63.875 40.5 61.5312 40.5C59.9688 40.5 58.4714 40.7279 57.0391 41.1836C55.6068 41.5742 54.3698 42.1927 53.3281 43.0391C52.0911 44.0156 51.1471 45.1549 50.4961 46.457C49.8451 47.694 49.5195 49.0612 49.5195 50.5586C49.5195 55.3763 51.082 58.957 54.207 61.3008C57.332 63.6445 62.0195 64.8164 68.2695 64.8164C74.3893 64.8164 79.3372 62.7331 83.1133 58.5664C86.8893 54.3346 88.7773 49.1263 88.7773 42.9414C88.7773 39.2305 87.8984 35.9102 86.1406 32.9805C84.4479 30.0508 81.9089 27.5117 78.5234 25.3633C75.724 23.5404 72.599 22.2057 69.1484 21.3594C65.763 20.513 62.0846 20.0898 58.1133 20.0898C53.2956 20.0898 48.901 20.6758 44.9297 21.8477C40.9583 23.0195 37.4427 24.8099 34.3828 27.2188C31.0625 29.8229 28.556 32.9479 26.8633 36.5938C25.1706 40.2396 24.3242 44.4062 24.3242 49.0938C24.3242 53.8464 25.8867 58.4688 29.0117 62.9609C32.1367 67.388 36.8242 71.7174 43.0742 75.9492C48.9336 79.9206 54.7604 83.8594 60.5547 87.7656C66.349 91.6719 72.1432 95.5781 77.9375 99.4844C84.1875 105.018 88.875 111.105 92 117.746C95.125 124.322 96.6875 131.451 96.6875 139.133C96.6875 146.359 95.3854 152.837 92.7812 158.566C90.2422 164.23 86.3685 169.113 81.1602 173.215C76.3424 176.991 70.9062 179.888 64.8516 181.906C58.862 183.924 52.1888 184.934 44.832 184.934C39.0378 184.934 33.6992 184.413 28.8164 183.371C23.9987 182.329 19.5391 180.734 15.4375 178.586C10.4245 175.917 6.64844 172.629 4.10938 168.723C1.57031 164.751 0.300781 160.129 0.300781 154.855C0.300781 146.848 2.44922 140.402 6.74609 135.52C11.1081 130.572 17.2279 128.098 25.1055 128.098C28.2956 128.098 31.1927 128.553 33.7969 129.465C36.401 130.376 38.7773 131.678 40.9258 133.371C43.2695 135.194 44.9948 137.342 46.1016 139.816C47.2734 142.29 47.8594 145.025 47.8594 148.02C47.8594 153.618 46.5247 157.818 43.8555 160.617C41.1862 163.352 37.1172 164.719 31.6484 164.719C28.7188 164.719 26.1471 163.905 23.9336 162.277C21.7852 160.585 20.7109 158.371 20.7109 155.637C20.7109 153.163 21.2643 151.307 22.3711 150.07C23.543 148.833 25.2682 148.215 27.5469 148.215C27.8073 148.215 28.1003 148.247 28.4258 148.312C28.7513 148.312 29.0768 148.312 29.4023 148.312C28.6211 148.898 28.0352 149.517 27.6445 150.168C27.2539 150.819 27.0586 151.47 27.0586 152.121C27.0586 153.423 27.4492 154.367 28.2305 154.953C29.0117 155.539 30.151 155.832 31.6484 155.832C33.3411 155.832 34.5781 155.311 35.3594 154.27C36.2057 153.163 36.6289 151.503 36.6289 149.289C36.6289 147.792 36.2708 146.457 35.5547 145.285C34.9036 144.048 33.862 142.941 32.4297 141.965C31.2578 141.184 29.9232 140.598 28.4258 140.207C26.9935 139.816 25.4635 139.621 23.8359 139.621C19.3438 139.621 15.9583 140.923 13.6797 143.527C11.401 146.066 10.2617 149.842 10.2617 154.855C10.2617 157.785 10.9453 160.389 12.3125 162.668C13.6797 164.947 15.6979 166.9 18.3672 168.527C20.5807 169.895 23.0547 170.904 25.7891 171.555C28.5234 172.206 31.4531 172.531 34.5781 172.531C38.5495 172.531 42.1953 171.848 45.5156 170.48C48.8359 169.113 51.7982 167.03 54.4023 164.23C56.9414 161.496 58.8294 158.469 60.0664 155.148C61.3685 151.828 62.0195 148.117 62.0195 144.016C62.0195 139.719 60.6849 135.161 58.0156 130.344C55.4115 125.461 51.4076 120.35 46.0039 115.012C41.1862 110.259 36.2708 105.572 31.2578 100.949C26.3099 96.3268 21.362 91.6719 16.4141 86.9844C11.1406 81.3203 7.16927 75.7539 4.5 70.2852C1.83073 64.7513 0.496094 59.3477 0.496094 54.0742C0.496094 46.2617 1.86328 39.3607 4.59766 33.3711C7.33203 27.3815 11.401 22.3685 16.8047 18.332C21.6875 14.6862 27.3516 11.9844 33.7969 10.2266C40.3073 8.40365 47.6315 7.49219 55.7695 7.49219C61.7591 7.49219 67.3906 8.20833 72.6641 9.64062C78.0026 11.0078 82.918 13.1237 87.4102 15.9883C92.7487 19.3737 96.7201 23.3125 99.3242 27.8047C101.993 32.2969 103.328 37.3424 103.328 42.9414ZM240.73 29.4648C240.73 35.4544 239.428 42.5833 236.824 50.8516C234.22 59.1198 230.314 68.4948 225.105 78.9766C221.134 86.9193 216.935 94.7643 212.508 102.512C208.081 110.259 203.882 118.137 199.91 126.145C195.158 135.715 190.926 144.96 187.215 153.879C183.504 162.798 180.314 171.392 177.645 179.66L113.875 18.7227L152.449 1.53516L183.895 129.465C184.546 127.902 187.02 122.661 191.316 113.742C195.613 104.758 201.733 92.0625 209.676 75.6562C215.861 62.8307 220.516 52.1862 223.641 43.7227C226.831 35.2591 228.426 28.944 228.426 24.7773C228.426 22.7591 228.198 20.8385 227.742 19.0156C227.286 17.1927 226.603 15.5 225.691 13.9375C224.65 12.1797 223.348 10.8451 221.785 9.93359C220.288 8.95703 218.562 8.46875 216.609 8.46875C211.922 8.46875 207.951 10.2591 204.695 13.8398C201.44 17.3555 199.812 21.4896 199.812 26.2422C199.812 30.2786 200.431 33.3385 201.668 35.4219C202.905 37.4401 204.793 38.4492 207.332 38.4492C209.22 38.4492 210.587 38.0586 211.434 37.2773C212.345 36.431 212.801 35.1615 212.801 33.4688C212.801 31.8411 212.312 30.5391 211.336 29.5625C210.359 28.5859 208.862 27.9023 206.844 27.5117C208.341 26.0794 209.773 25.0378 211.141 24.3867C212.508 23.6706 213.81 23.3125 215.047 23.3125C217.456 23.3125 219.246 24.1914 220.418 25.9492C221.655 27.6419 222.273 30.1484 222.273 33.4688C222.273 35.6172 221.85 37.5703 221.004 39.3281C220.158 41.0208 218.888 42.5182 217.195 43.8203C215.633 44.9922 213.908 45.8385 212.02 46.3594C210.197 46.8802 208.146 47.1406 205.867 47.1406C199.878 47.1406 195.06 44.9922 191.414 40.6953C187.768 36.3984 185.945 31.2552 185.945 25.2656C185.945 21.4896 186.694 18.0716 188.191 15.0117C189.754 11.8867 192.065 9.15234 195.125 6.80859C197.99 4.59505 201.082 2.96745 204.402 1.92578C207.723 0.884115 211.336 0.363281 215.242 0.363281C219.279 0.363281 222.892 1.11198 226.082 2.60938C229.272 4.04167 231.974 6.1901 234.188 9.05469C236.336 11.8542 237.964 14.9466 239.07 18.332C240.177 21.6523 240.73 25.3633 240.73 29.4648ZM154.012 83.0781V79.1719C154.012 71.8151 153.491 64.0026 152.449 55.7344C151.408 47.4661 149.682 38.7747 147.273 29.6602L138.094 31.0273C141.154 38.9049 143.595 47.043 145.418 55.4414C147.306 63.8398 148.51 72.4336 149.031 81.2227L154.012 83.0781ZM389.754 96.457C389.428 107.199 388.094 117.062 385.75 126.047C383.471 134.966 380.184 143.007 375.887 150.168C370.613 158.957 364.201 165.565 356.648 169.992C349.096 174.419 340.405 176.633 330.574 176.633C319.897 176.633 310.066 174.322 301.082 169.699C292.098 165.077 284.025 158.143 276.863 148.898C270.158 140.305 265.112 131.125 261.727 121.359C258.406 111.594 256.746 101.177 256.746 90.1094C256.746 79.4974 258.211 69.6341 261.141 60.5195C264.07 51.4049 268.595 43.1367 274.715 35.7148C281.225 27.7721 288.712 21.8151 297.176 17.8438C305.639 13.8073 315.079 11.7891 325.496 11.7891C330.574 11.7891 335.49 12.4727 340.242 13.8398C344.995 15.207 349.52 17.2904 353.816 20.0898C358.048 22.8242 361.824 26.0143 365.145 29.6602C368.465 33.306 371.297 37.4076 373.641 41.9648L367 43.625C364.852 41.3464 362.247 39.6536 359.188 38.5469C356.128 37.4401 352.514 36.8867 348.348 36.8867C339.689 36.8867 331.648 39.2956 324.227 44.1133C316.87 48.8659 310.197 56.0273 304.207 65.5977C298.934 73.9961 294.962 82.6224 292.293 91.4766C289.689 100.266 288.387 109.283 288.387 118.527C288.387 125.233 289.201 131.418 290.828 137.082C292.521 142.681 295.06 147.694 298.445 152.121C302.221 157.069 306.681 160.78 311.824 163.254C316.967 165.728 322.794 166.965 329.305 166.965C334.448 166.965 339.07 165.63 343.172 162.961C347.339 160.227 351.017 156.158 354.207 150.754C356.746 146.392 358.764 141.704 360.262 136.691C361.759 131.613 362.671 126.21 362.996 120.48L318.172 124.484L315.438 110.227L357.234 105.93L321.59 97.2383L322.664 81.5156L389.754 96.457ZM312.703 38.9375C312.703 36.6589 312.117 34.9336 310.945 33.7617C309.773 32.5898 308.016 32.0039 305.672 32.0039C303.393 32.0039 301.668 32.5898 300.496 33.7617C299.324 34.9336 298.738 36.6589 298.738 38.9375C298.738 40.7604 299.422 42.388 300.789 43.8203C302.156 45.2526 303.784 45.9688 305.672 45.9688C308.016 45.9688 309.773 45.3828 310.945 44.2109C312.117 43.0391 312.703 41.2812 312.703 38.9375ZM294.734 53.5859C294.734 51.1771 293.855 49.0938 292.098 47.3359C290.34 45.513 288.224 44.6016 285.75 44.6016C283.276 44.6016 281.16 45.513 279.402 47.3359C277.71 49.0938 276.863 51.1771 276.863 53.5859C276.863 56.0599 277.71 58.2083 279.402 60.0312C281.16 61.7891 283.276 62.668 285.75 62.668C288.224 62.668 290.34 61.7891 292.098 60.0312C293.855 58.2083 294.734 56.0599 294.734 53.5859ZM283.504 76.8281C283.504 74.4844 282.918 72.7266 281.746 71.5547C280.639 70.3828 278.914 69.7969 276.57 69.7969C274.227 69.7969 272.469 70.3828 271.297 71.5547C270.125 72.7266 269.539 74.4844 269.539 76.8281C269.539 78.651 270.223 80.2786 271.59 81.7109C273.022 83.1432 274.682 83.8594 276.57 83.8594C278.458 83.8594 280.086 83.1432 281.453 81.7109C282.82 80.2786 283.504 78.651 283.504 76.8281Z" fill="#1B7824"/>
</svg>
